<mxfile host="app.diagrams.net" modified="2024-06-02T06:35:07.059Z" agent="Mozilla/5.0 (Windows NT 10.0; Win64; x64) AppleWebKit/537.36 (KHTML, like Gecko) Chrome/125.0.0.0 Safari/537.36 Edg/125.0.0.0" etag="WG7qcEpnV6FmoGhd8R6u" version="24.2.8" type="device">
  <diagram id="C5RBs43oDa-KdzZeNtuy" name="Page-1">
    <mxGraphModel dx="948" dy="5299" grid="1" gridSize="10" guides="1" tooltips="1" connect="1" arrows="1" fold="1" page="1" pageScale="1" pageWidth="3300" pageHeight="4681" math="0" shadow="0">
      <root>
        <mxCell id="WIyWlLk6GJQsqaUBKTNV-0" />
        <mxCell id="WIyWlLk6GJQsqaUBKTNV-1" parent="WIyWlLk6GJQsqaUBKTNV-0" />
        <mxCell id="sURrvoirdm_jcofsN_Vr-2" value="" style="edgeStyle=orthogonalEdgeStyle;rounded=0;orthogonalLoop=1;jettySize=auto;html=1;" edge="1" parent="WIyWlLk6GJQsqaUBKTNV-1" source="sURrvoirdm_jcofsN_Vr-0" target="sURrvoirdm_jcofsN_Vr-1">
          <mxGeometry relative="1" as="geometry" />
        </mxCell>
        <mxCell id="sURrvoirdm_jcofsN_Vr-0" value="start" style="rounded=0;whiteSpace=wrap;html=1;" vertex="1" parent="WIyWlLk6GJQsqaUBKTNV-1">
          <mxGeometry x="10" y="250" width="100" height="60" as="geometry" />
        </mxCell>
        <mxCell id="sURrvoirdm_jcofsN_Vr-3" style="edgeStyle=orthogonalEdgeStyle;rounded=0;orthogonalLoop=1;jettySize=auto;html=1;exitX=0;exitY=0.5;exitDx=0;exitDy=0;" edge="1" parent="WIyWlLk6GJQsqaUBKTNV-1" source="sURrvoirdm_jcofsN_Vr-1">
          <mxGeometry relative="1" as="geometry">
            <mxPoint x="180" y="280" as="targetPoint" />
          </mxGeometry>
        </mxCell>
        <mxCell id="sURrvoirdm_jcofsN_Vr-5" value="" style="edgeStyle=orthogonalEdgeStyle;rounded=0;orthogonalLoop=1;jettySize=auto;html=1;" edge="1" parent="WIyWlLk6GJQsqaUBKTNV-1" source="sURrvoirdm_jcofsN_Vr-1" target="sURrvoirdm_jcofsN_Vr-4">
          <mxGeometry relative="1" as="geometry" />
        </mxCell>
        <mxCell id="sURrvoirdm_jcofsN_Vr-1" value="输入文本文件" style="rounded=0;whiteSpace=wrap;html=1;" vertex="1" parent="WIyWlLk6GJQsqaUBKTNV-1">
          <mxGeometry x="160" y="250" width="100" height="60" as="geometry" />
        </mxCell>
        <mxCell id="sURrvoirdm_jcofsN_Vr-4" value="&lt;div style=&quot;background-color: rgb(255, 255, 255); font-family: Consolas, &amp;quot;Courier New&amp;quot;, monospace; font-size: 14px; line-height: 19px; white-space: pre;&quot;&gt;readTextFile&lt;/div&gt;&lt;div style=&quot;background-color: rgb(255, 255, 255); font-family: Consolas, &amp;quot;Courier New&amp;quot;, monospace; font-size: 14px; line-height: 19px; white-space: pre;&quot;&gt;构建有向图&lt;/div&gt;" style="rounded=0;whiteSpace=wrap;html=1;" vertex="1" parent="WIyWlLk6GJQsqaUBKTNV-1">
          <mxGeometry x="300" y="250" width="100" height="60" as="geometry" />
        </mxCell>
        <mxCell id="sURrvoirdm_jcofsN_Vr-6" value="" style="strokeWidth=2;html=1;shape=mxgraph.flowchart.annotation_2;align=left;labelPosition=right;pointerEvents=1;" vertex="1" parent="WIyWlLk6GJQsqaUBKTNV-1">
          <mxGeometry x="400" y="23.43" width="130" height="513.13" as="geometry" />
        </mxCell>
        <mxCell id="sURrvoirdm_jcofsN_Vr-30" value="" style="edgeStyle=orthogonalEdgeStyle;rounded=0;orthogonalLoop=1;jettySize=auto;html=1;" edge="1" parent="WIyWlLk6GJQsqaUBKTNV-1" source="sURrvoirdm_jcofsN_Vr-7" target="sURrvoirdm_jcofsN_Vr-29">
          <mxGeometry relative="1" as="geometry" />
        </mxCell>
        <mxCell id="sURrvoirdm_jcofsN_Vr-7" value="&lt;div style=&quot;color: rgb(59, 59, 59); background-color: rgb(255, 255, 255); font-family: Consolas, &amp;quot;Courier New&amp;quot;, monospace; font-size: 14px; line-height: 19px; white-space: pre;&quot;&gt;&lt;span style=&quot;color: #795e26;&quot;&gt;showDirectedGraph&lt;/span&gt;&lt;/div&gt;" style="rounded=0;whiteSpace=wrap;html=1;" vertex="1" parent="WIyWlLk6GJQsqaUBKTNV-1">
          <mxGeometry x="560" y="-10" width="160" height="60" as="geometry" />
        </mxCell>
        <mxCell id="sURrvoirdm_jcofsN_Vr-32" style="edgeStyle=orthogonalEdgeStyle;rounded=0;orthogonalLoop=1;jettySize=auto;html=1;exitX=1;exitY=0.5;exitDx=0;exitDy=0;entryX=0;entryY=0.5;entryDx=0;entryDy=0;" edge="1" parent="WIyWlLk6GJQsqaUBKTNV-1" source="sURrvoirdm_jcofsN_Vr-8" target="sURrvoirdm_jcofsN_Vr-29">
          <mxGeometry relative="1" as="geometry" />
        </mxCell>
        <mxCell id="sURrvoirdm_jcofsN_Vr-8" value="&lt;div style=&quot;color: rgb(59, 59, 59); background-color: rgb(255, 255, 255); font-family: Consolas, &amp;quot;Courier New&amp;quot;, monospace; font-size: 14px; line-height: 19px; white-space: pre;&quot;&gt;&lt;span style=&quot;color: #795e26;&quot;&gt;generateNewText&lt;/span&gt;&lt;/div&gt;" style="rounded=0;whiteSpace=wrap;html=1;" vertex="1" parent="WIyWlLk6GJQsqaUBKTNV-1">
          <mxGeometry x="560" y="249.99" width="160" height="60" as="geometry" />
        </mxCell>
        <mxCell id="sURrvoirdm_jcofsN_Vr-35" style="edgeStyle=orthogonalEdgeStyle;rounded=0;orthogonalLoop=1;jettySize=auto;html=1;exitX=1;exitY=0.5;exitDx=0;exitDy=0;entryX=0.25;entryY=0;entryDx=0;entryDy=0;" edge="1" parent="WIyWlLk6GJQsqaUBKTNV-1" source="sURrvoirdm_jcofsN_Vr-9" target="sURrvoirdm_jcofsN_Vr-29">
          <mxGeometry relative="1" as="geometry" />
        </mxCell>
        <mxCell id="sURrvoirdm_jcofsN_Vr-9" value="&lt;div style=&quot;color: rgb(59, 59, 59); background-color: rgb(255, 255, 255); font-family: Consolas, &amp;quot;Courier New&amp;quot;, monospace; font-size: 14px; line-height: 19px; white-space: pre;&quot;&gt;&lt;span style=&quot;color: #795e26;&quot;&gt;queryBridgeWords&lt;/span&gt;&lt;/div&gt;" style="rounded=0;whiteSpace=wrap;html=1;" vertex="1" parent="WIyWlLk6GJQsqaUBKTNV-1">
          <mxGeometry x="560" y="120" width="160" height="60" as="geometry" />
        </mxCell>
        <mxCell id="sURrvoirdm_jcofsN_Vr-33" style="edgeStyle=orthogonalEdgeStyle;rounded=0;orthogonalLoop=1;jettySize=auto;html=1;exitX=1;exitY=0.5;exitDx=0;exitDy=0;" edge="1" parent="WIyWlLk6GJQsqaUBKTNV-1" source="sURrvoirdm_jcofsN_Vr-10">
          <mxGeometry relative="1" as="geometry">
            <mxPoint x="880" y="310" as="targetPoint" />
          </mxGeometry>
        </mxCell>
        <mxCell id="sURrvoirdm_jcofsN_Vr-10" value="&lt;div style=&quot;color: rgb(59, 59, 59); background-color: rgb(255, 255, 255); font-family: Consolas, &amp;quot;Courier New&amp;quot;, monospace; font-size: 14px; line-height: 19px; white-space: pre;&quot;&gt;&lt;span style=&quot;color: #795e26;&quot;&gt;calcShortestPath&lt;/span&gt;&lt;/div&gt;" style="rounded=0;whiteSpace=wrap;html=1;" vertex="1" parent="WIyWlLk6GJQsqaUBKTNV-1">
          <mxGeometry x="560" y="380" width="170" height="60" as="geometry" />
        </mxCell>
        <mxCell id="sURrvoirdm_jcofsN_Vr-34" style="edgeStyle=orthogonalEdgeStyle;rounded=0;orthogonalLoop=1;jettySize=auto;html=1;exitX=1;exitY=0.5;exitDx=0;exitDy=0;" edge="1" parent="WIyWlLk6GJQsqaUBKTNV-1" source="sURrvoirdm_jcofsN_Vr-11">
          <mxGeometry relative="1" as="geometry">
            <mxPoint x="920" y="310" as="targetPoint" />
          </mxGeometry>
        </mxCell>
        <mxCell id="sURrvoirdm_jcofsN_Vr-11" value="&lt;div style=&quot;color: rgb(59, 59, 59); background-color: rgb(255, 255, 255); font-family: Consolas, &amp;quot;Courier New&amp;quot;, monospace; font-size: 14px; line-height: 19px; white-space: pre;&quot;&gt;&lt;span style=&quot;color: #795e26;&quot;&gt;randomWalk&lt;/span&gt;&lt;/div&gt;" style="rounded=0;whiteSpace=wrap;html=1;" vertex="1" parent="WIyWlLk6GJQsqaUBKTNV-1">
          <mxGeometry x="560" y="500" width="170" height="60" as="geometry" />
        </mxCell>
        <mxCell id="sURrvoirdm_jcofsN_Vr-14" value="" style="endArrow=classic;html=1;rounded=0;exitX=0.48;exitY=0.498;exitDx=0;exitDy=0;exitPerimeter=0;entryX=0;entryY=0.5;entryDx=0;entryDy=0;" edge="1" parent="WIyWlLk6GJQsqaUBKTNV-1" source="sURrvoirdm_jcofsN_Vr-6" target="sURrvoirdm_jcofsN_Vr-8">
          <mxGeometry width="50" height="50" relative="1" as="geometry">
            <mxPoint x="530" y="300" as="sourcePoint" />
            <mxPoint x="580" y="250" as="targetPoint" />
          </mxGeometry>
        </mxCell>
        <mxCell id="sURrvoirdm_jcofsN_Vr-15" value="" style="endArrow=classic;html=1;rounded=0;entryX=0;entryY=0.5;entryDx=0;entryDy=0;" edge="1" parent="WIyWlLk6GJQsqaUBKTNV-1" target="sURrvoirdm_jcofsN_Vr-9">
          <mxGeometry width="50" height="50" relative="1" as="geometry">
            <mxPoint x="465" y="150" as="sourcePoint" />
            <mxPoint x="530" y="155" as="targetPoint" />
          </mxGeometry>
        </mxCell>
        <mxCell id="sURrvoirdm_jcofsN_Vr-16" value="" style="endArrow=classic;html=1;rounded=0;entryX=-0.03;entryY=0.623;entryDx=0;entryDy=0;exitX=0.511;exitY=0.768;exitDx=0;exitDy=0;exitPerimeter=0;entryPerimeter=0;" edge="1" parent="WIyWlLk6GJQsqaUBKTNV-1" source="sURrvoirdm_jcofsN_Vr-6" target="sURrvoirdm_jcofsN_Vr-10">
          <mxGeometry width="50" height="50" relative="1" as="geometry">
            <mxPoint x="475" y="160" as="sourcePoint" />
            <mxPoint x="540" y="160" as="targetPoint" />
          </mxGeometry>
        </mxCell>
        <mxCell id="sURrvoirdm_jcofsN_Vr-18" value="While（）" style="text;html=1;align=center;verticalAlign=middle;whiteSpace=wrap;rounded=0;" vertex="1" parent="WIyWlLk6GJQsqaUBKTNV-1">
          <mxGeometry x="400" y="249.99" width="60" height="30" as="geometry" />
        </mxCell>
        <mxCell id="sURrvoirdm_jcofsN_Vr-19" value="" style="endArrow=classic;html=1;rounded=0;exitX=1;exitY=0;exitDx=0;exitDy=0;exitPerimeter=0;" edge="1" parent="WIyWlLk6GJQsqaUBKTNV-1" source="sURrvoirdm_jcofsN_Vr-6" target="sURrvoirdm_jcofsN_Vr-7">
          <mxGeometry width="50" height="50" relative="1" as="geometry">
            <mxPoint x="590" as="sourcePoint" />
            <mxPoint x="640" y="-50" as="targetPoint" />
          </mxGeometry>
        </mxCell>
        <mxCell id="sURrvoirdm_jcofsN_Vr-20" value="" style="endArrow=classic;html=1;rounded=0;exitX=1;exitY=1;exitDx=0;exitDy=0;exitPerimeter=0;entryX=0;entryY=0.623;entryDx=0;entryDy=0;entryPerimeter=0;" edge="1" parent="WIyWlLk6GJQsqaUBKTNV-1" source="sURrvoirdm_jcofsN_Vr-6" target="sURrvoirdm_jcofsN_Vr-11">
          <mxGeometry width="50" height="50" relative="1" as="geometry">
            <mxPoint x="590" y="300" as="sourcePoint" />
            <mxPoint x="640" y="250" as="targetPoint" />
          </mxGeometry>
        </mxCell>
        <mxCell id="sURrvoirdm_jcofsN_Vr-21" value="命令行输入1" style="text;html=1;align=center;verticalAlign=middle;whiteSpace=wrap;rounded=0;" vertex="1" parent="WIyWlLk6GJQsqaUBKTNV-1">
          <mxGeometry x="480" y="-10" width="60" height="30" as="geometry" />
        </mxCell>
        <mxCell id="sURrvoirdm_jcofsN_Vr-22" value="命令行输入2" style="text;html=1;align=center;verticalAlign=middle;whiteSpace=wrap;rounded=0;" vertex="1" parent="WIyWlLk6GJQsqaUBKTNV-1">
          <mxGeometry x="480" y="120" width="60" height="30" as="geometry" />
        </mxCell>
        <mxCell id="sURrvoirdm_jcofsN_Vr-23" value="命令行输入3" style="text;html=1;align=center;verticalAlign=middle;whiteSpace=wrap;rounded=0;" vertex="1" parent="WIyWlLk6GJQsqaUBKTNV-1">
          <mxGeometry x="480" y="249.99" width="60" height="30" as="geometry" />
        </mxCell>
        <mxCell id="sURrvoirdm_jcofsN_Vr-24" value="命令行输入4" style="text;html=1;align=center;verticalAlign=middle;whiteSpace=wrap;rounded=0;" vertex="1" parent="WIyWlLk6GJQsqaUBKTNV-1">
          <mxGeometry x="480" y="380" width="60" height="30" as="geometry" />
        </mxCell>
        <mxCell id="sURrvoirdm_jcofsN_Vr-25" value="命令行输入5" style="text;html=1;align=center;verticalAlign=middle;whiteSpace=wrap;rounded=0;" vertex="1" parent="WIyWlLk6GJQsqaUBKTNV-1">
          <mxGeometry x="480" y="500" width="60" height="30" as="geometry" />
        </mxCell>
        <mxCell id="sURrvoirdm_jcofsN_Vr-26" value="输入word" style="text;html=1;align=center;verticalAlign=middle;whiteSpace=wrap;rounded=0;" vertex="1" parent="WIyWlLk6GJQsqaUBKTNV-1">
          <mxGeometry x="480" y="150" width="60" height="30" as="geometry" />
        </mxCell>
        <mxCell id="sURrvoirdm_jcofsN_Vr-27" value="输入word1、word2" style="text;html=1;align=center;verticalAlign=middle;whiteSpace=wrap;rounded=0;" vertex="1" parent="WIyWlLk6GJQsqaUBKTNV-1">
          <mxGeometry x="480" y="290" width="60" height="30" as="geometry" />
        </mxCell>
        <mxCell id="sURrvoirdm_jcofsN_Vr-28" value="输入word1、word2" style="text;html=1;align=center;verticalAlign=middle;whiteSpace=wrap;rounded=0;" vertex="1" parent="WIyWlLk6GJQsqaUBKTNV-1">
          <mxGeometry x="480" y="430" width="60" height="30" as="geometry" />
        </mxCell>
        <mxCell id="sURrvoirdm_jcofsN_Vr-29" value="&lt;div style=&quot;color: rgb(59, 59, 59); background-color: rgb(255, 255, 255); font-family: Consolas, &amp;quot;Courier New&amp;quot;, monospace; font-size: 14px; line-height: 19px; white-space: pre;&quot;&gt;&lt;span style=&quot;color: #795e26;&quot;&gt;exit&lt;/span&gt;&lt;/div&gt;" style="rounded=0;whiteSpace=wrap;html=1;" vertex="1" parent="WIyWlLk6GJQsqaUBKTNV-1">
          <mxGeometry x="840" y="249.99" width="160" height="60" as="geometry" />
        </mxCell>
        <mxCell id="sURrvoirdm_jcofsN_Vr-36" value="命令行输入6" style="text;html=1;align=center;verticalAlign=middle;whiteSpace=wrap;rounded=0;" vertex="1" parent="WIyWlLk6GJQsqaUBKTNV-1">
          <mxGeometry x="770" y="-10" width="60" height="30" as="geometry" />
        </mxCell>
        <mxCell id="sURrvoirdm_jcofsN_Vr-37" value="命令行输入6" style="text;html=1;align=center;verticalAlign=middle;whiteSpace=wrap;rounded=0;" vertex="1" parent="WIyWlLk6GJQsqaUBKTNV-1">
          <mxGeometry x="770" y="120" width="60" height="30" as="geometry" />
        </mxCell>
        <mxCell id="sURrvoirdm_jcofsN_Vr-38" value="命令行输入6" style="text;html=1;align=center;verticalAlign=middle;whiteSpace=wrap;rounded=0;" vertex="1" parent="WIyWlLk6GJQsqaUBKTNV-1">
          <mxGeometry x="750" y="250" width="60" height="30" as="geometry" />
        </mxCell>
        <mxCell id="sURrvoirdm_jcofsN_Vr-39" value="命令行输入6" style="text;html=1;align=center;verticalAlign=middle;whiteSpace=wrap;rounded=0;" vertex="1" parent="WIyWlLk6GJQsqaUBKTNV-1">
          <mxGeometry x="760" y="380" width="60" height="30" as="geometry" />
        </mxCell>
        <mxCell id="sURrvoirdm_jcofsN_Vr-40" value="命令行输入6" style="text;html=1;align=center;verticalAlign=middle;whiteSpace=wrap;rounded=0;" vertex="1" parent="WIyWlLk6GJQsqaUBKTNV-1">
          <mxGeometry x="760" y="500" width="60" height="30" as="geometry" />
        </mxCell>
      </root>
    </mxGraphModel>
  </diagram>
</mxfile>
